<svg id="Layer_1" data-name="Layer 1" xmlns="http://www.w3.org/2000/svg" viewBox="0 0 18.83 21"><defs><style>.cls-1{fill:#cecdcd;}.cls-2{fill:#fff;}.cls-3{fill:#999;}</style></defs><title>edit</title><polygon class="cls-1" points="0 5.39 0 19.45 15.61 19.45 15.61 0 5.3 0 0 5.39"/><polygon class="cls-2" points="2.47 4.03 2.47 16.97 13.02 16.95 13.02 2.49 4.36 2.49 2.47 4.03"/><polygon class="cls-1" points="2.36 3.51 4.81 1.04 6.31 0.72 7.98 0.72 7.98 7.78 0.7 7.78 0.7 5.82 2.36 3.51"/><polygon class="cls-2" points="2.58 6.24 6.37 6.24 6.37 2.58 2.58 6.24"/><rect class="cls-3" x="3.91" y="10.8" width="12.7" height="5.71" transform="translate(-6.65 11.26) rotate(-45)"/><path class="cls-3" d="M17.66,10.33l0.73-.73a1.51,1.51,0,0,0,0-2.14L16.48,5.54a1.51,1.51,0,0,0-2.14,0l-0.73.73Z"/><polygon class="cls-3" points="2.92 16.95 2.92 21 6.97 21 2.92 16.95"/></svg>