<svg id="Layer_1" data-name="Layer 1" xmlns="http://www.w3.org/2000/svg" viewBox="0 0 18.42 21"><defs><style>.cls-1{fill:#cecdcd;}.cls-2{fill:#fff;}.cls-3{fill:#999;}</style></defs><title>view1</title><polygon class="cls-1" points="0 5.39 0 19.45 15.61 19.45 15.61 0 5.3 0 0 5.39"/><polygon class="cls-2" points="2.47 4.03 2.47 16.97 13.02 16.95 13.02 2.49 4.36 2.49 2.47 4.03"/><polygon class="cls-1" points="2.36 3.51 4.81 1.04 6.31 0.72 7.98 0.72 7.98 7.78 0.7 7.78 0.7 5.82 2.36 3.51"/><polygon class="cls-2" points="2.58 6.24 6.37 6.24 6.37 2.58 2.58 6.24"/><circle class="cls-3" cx="13.2" cy="11.82" r="5.22"/><circle class="cls-2" cx="13.2" cy="11.82" r="3.5"/><rect class="cls-3" x="4.45" y="15.7" width="6.58" height="3.48" transform="translate(-10.06 10.58) rotate(-45)"/></svg>