<svg id="Layer_1" data-name="Layer 1" xmlns="http://www.w3.org/2000/svg" viewBox="0 0 18.16 20.52"><defs><style>.cls-1{fill:#cecdcd;}.cls-2{fill:#fff;}.cls-3{fill:#999;}</style></defs><title>view2</title><polygon class="cls-1" points="0 5.39 0 19.45 15.61 19.45 15.61 0 5.3 0 0 5.39"/><polygon class="cls-2" points="2.47 4.03 2.47 16.97 13.02 16.95 13.02 2.49 4.36 2.49 2.47 4.03"/><polygon class="cls-1" points="2.36 3.51 4.81 1.04 6.31 0.72 7.98 0.72 7.98 7.78 0.7 7.78 0.7 5.82 2.36 3.51"/><polygon class="cls-2" points="2.58 6.24 6.37 6.24 6.37 2.58 2.58 6.24"/><polygon class="cls-3" points="11.89 11.32 6.37 16.84 10.04 20.52 15.57 15 18.16 17.59 18.16 8.72 9.29 8.72 11.89 11.32"/></svg>