<svg id="Layer_1" data-name="Layer 1" xmlns="http://www.w3.org/2000/svg" viewBox="0 0 19.02 21.07"><defs><style>.cls-1{fill:#cecdcd;}.cls-2{fill:#fff;}.cls-3{fill:#87cce9;}.cls-4{fill:#478cca;}</style></defs><title>copy</title><polygon class="cls-1" points="0 4.85 0 17.51 14.05 17.51 14.05 0 4.77 0 0 4.85"/><polygon class="cls-2" points="2.22 3.62 2.22 15.28 11.72 15.25 11.72 2.24 3.92 2.24 2.22 3.62"/><polygon class="cls-1" points="2.13 3.16 4.33 0.94 5.68 0.65 7.18 0.65 7.18 7 0.63 7 0.63 5.24 2.13 3.16"/><polygon class="cls-2" points="2.32 5.62 5.73 5.62 5.73 2.32 2.32 5.62"/><polygon class="cls-3" points="4.97 8.41 4.97 21.07 19.02 21.07 19.02 3.56 9.73 3.56 4.97 8.41"/><polygon class="cls-2" points="7.19 7.18 7.19 18.84 16.68 18.82 16.68 5.8 8.89 5.8 7.19 7.18"/><polygon class="cls-3" points="7.09 6.72 9.29 4.5 10.65 4.21 12.15 4.21 12.15 10.56 5.6 10.56 5.6 8.8 7.09 6.72"/><polygon class="cls-2" points="7.29 9.18 10.7 9.18 10.7 5.88 7.29 9.18"/><polygon class="cls-4" points="15.15 14.05 12.87 14.05 12.87 11.77 11.43 11.77 11.43 14.05 9.15 14.05 9.15 15.49 11.43 15.49 11.43 17.77 12.87 17.77 12.87 15.49 15.15 15.49 15.15 14.05"/></svg>