<svg id="Layer_1" data-name="Layer 1" xmlns="http://www.w3.org/2000/svg" viewBox="0 0 63.65 69.37"><defs><style>.cls-1{fill:#ff5e0b;}</style></defs><title>phire-seal2</title><path class="cls-1" d="M73.5,56.09A45.43,45.43,0,0,0,70,40.72c-1.06-2.65-7.37-12.86-12.23-17.19,4.36,7.68,1.46,13.73-3.48,14-3.15.18-5.58-2.17-6.72-4.91A20.91,20.91,0,0,1,46,21a39.1,39.1,0,0,1,3.27-10.34c-3,1.25-7.59,2.59-12.33,6.21C31.22,21.24,27.76,28,28,33.9c.25,7.34,2.73,9.94,2.35,13.47-.36,3.36-1.7,4.33-3.7,4.82A6.5,6.5,0,0,1,20,49.45a9.68,9.68,0,0,1-1.79-5.67A18.28,18.28,0,0,1,19,38.07c-2.22,2.36-4.37,4.08-6.61,9.14-3,6.86-2.69,11-2,15.27S14,70.67,15.51,72.3a22.21,22.21,0,0,0,8.79,6.17C28.77,80,34,80,38.13,80l-.73-.22a10.56,10.56,0,0,1-6.47-6.69c-1.6-5.38-.57-8.87,1.34-11.64a17.48,17.48,0,0,1,6.58-5.69A52,52,0,0,0,45.5,52c3-2.16,1.05-6.7,1.05-6.7A10.21,10.21,0,0,1,50,51.11a14.42,14.42,0,0,1-.69,7.43c-.82,2.41-.54,5.15,1.65,5.48,3,.28,2.8-3.93,2.39-6.11,1.79,1.68,3.51,2.83,4.81,4.25a16.47,16.47,0,0,1,3.17,4.69,9,9,0,0,1-.41,7.35c-1.42,2.72-5.34,5-8.95,5.79,7.13-.3,12.51-2.08,16.46-6.62C72.21,69,74,63.69,73.5,56.09Z" transform="translate(-9.93 -10.63)"/></svg>