<svg id="Layer_1" data-name="Layer 1" xmlns="http://www.w3.org/2000/svg" viewBox="0 0 152.18 29.89"><defs><style>.cls-1{fill:#ff681f;}.cls-2{fill:#fff;}</style></defs><title>phire-logo</title><path class="cls-1" d="M30.87,21.68A16.85,16.85,0,0,0,29.56,16,25.66,25.66,0,0,0,25,9.6c1.62,2.85.54,5.09-1.29,5.2A2.66,2.66,0,0,1,21.24,13a7.75,7.75,0,0,1-.55-4.32A14.5,14.5,0,0,1,21.9,4.82a17.36,17.36,0,0,0-4.57,2.3A8.11,8.11,0,0,0,14,13.45c0.09,2.72,1,3.68.87,5a1.68,1.68,0,0,1-1.37,1.79,2.41,2.41,0,0,1-2.45-1,3.59,3.59,0,0,1-.66-2.1A6.78,6.78,0,0,1,10.67,15a10,10,0,0,0-2.45,3.39A8.94,8.94,0,0,0,7.46,24a7.86,7.86,0,0,0,1.91,3.64A8.24,8.24,0,0,0,12.63,30a16.58,16.58,0,0,0,5.13.56l-0.27-.08A3.91,3.91,0,0,1,15.09,28a4.67,4.67,0,0,1,.5-4.32A6.48,6.48,0,0,1,18,21.55a19.29,19.29,0,0,0,2.47-1.38c1.11-.8.39-2.49,0.39-2.49a3.78,3.78,0,0,1,1.28,2.15,5.35,5.35,0,0,1-.26,2.76c-0.3.89-.2,1.91,0.61,2,1.11,0.1,1-1.46.89-2.27,0.66,0.62,1.3,1,1.78,1.58a6.11,6.11,0,0,1,1.18,1.74,3.33,3.33,0,0,1-.15,2.73,5.13,5.13,0,0,1-3.32,2.15c2.64-.11,4.64-0.77,6.1-2.46A8.31,8.31,0,0,0,30.87,21.68Z" transform="translate(-7.3 -4.82)"/><path class="cls-2" d="M46.59,30.88a6.35,6.35,0,0,1-5.44-3.16v7H39.89V17.05h1.27v3.26a6.37,6.37,0,0,1,5.44-3.26A6.56,6.56,0,0,1,53,23.91V24A6.6,6.6,0,0,1,46.59,30.88Zm5-6.91c0-3.47-2.41-5.69-5.18-5.69a5.53,5.53,0,0,0-5.38,5.67V24a5.51,5.51,0,0,0,5.38,5.67c2.87,0,5.18-2.1,5.18-5.64V24Z" transform="translate(-7.3 -4.82)"/><path class="cls-2" d="M67,30.88V22.72c0-2.72-1.53-4.5-4.19-4.5a4.53,4.53,0,0,0-4.58,4.71v7.95H57V11.67h1.27v8.15A5.17,5.17,0,0,1,63,17.05c3.34,0,5.28,2.28,5.28,5.44v8.39H67Z" transform="translate(-7.3 -4.82)"/><path class="cls-2" d="M73,30.88V17.05h1.27V30.88H73Z" transform="translate(-7.3 -4.82)"/><path class="cls-2" d="M86.28,18.55c-3.05,0-5.72,2.3-5.72,6.6v5.72H79.29V17.05h1.27v4.06a6.24,6.24,0,0,1,5.85-4v1.4H86.28Z" transform="translate(-7.3 -4.82)"/><path class="cls-2" d="M94.61,29.69a5.93,5.93,0,0,0,4.53-2.07L100,28.39a6.94,6.94,0,0,1-5.46,2.48A6.56,6.56,0,0,1,88.09,24V23.94c0-3.83,2.69-6.89,6.26-6.89s6.06,3,6.06,6.91V24a3,3,0,0,1,0,.47H89.44A5.23,5.23,0,0,0,94.61,29.69ZM99,23.34c-0.18-2.67-1.71-5.13-4.74-5.13-2.61,0-4.63,2.2-4.87,5.13H99Z" transform="translate(-7.3 -4.82)"/><path class="cls-2" d="M117.08,30.88A6.79,6.79,0,0,1,110.35,24V24a6.86,6.86,0,0,1,6.73-6.91,6.93,6.93,0,0,1,5.28,2.43l-0.91.93a6,6,0,0,0-4.4-2.17,5.45,5.45,0,0,0-5.33,5.67V24a5.55,5.55,0,0,0,5.44,5.72,5.9,5.9,0,0,0,4.43-2.2l0.88,0.78A6.8,6.8,0,0,1,117.08,30.88Z" transform="translate(-7.3 -4.82)"/><path class="cls-2" d="M144.72,30.88V22.72c0-2.85-1.48-4.5-3.91-4.5-2.23,0-4.17,1.71-4.17,4.66v8h-1.27V22.64c0-2.74-1.5-4.43-3.86-4.43A4.45,4.45,0,0,0,127.3,23v7.92H126V17.25h1.27v2.47a4.86,4.86,0,0,1,4.4-2.67,4.74,4.74,0,0,1,4.45,2.85,5.24,5.24,0,0,1,4.76-2.85c3.13,0,5.07,2.2,5.07,5.51v8.31h-1.27Z" transform="translate(-7.3 -4.82)"/><path class="cls-2" d="M154.92,30.82a9,9,0,0,1-5.41-1.92l0.75-1A7.74,7.74,0,0,0,155,29.63c1.79,0,3.18-1,3.18-2.51V27.07c0-1.55-1.66-2.12-3.49-2.64-2.15-.62-4.53-1.27-4.53-3.62V20.75c0-2.12,1.79-3.65,4.35-3.65a8.92,8.92,0,0,1,4.69,1.45l-0.67,1.06a7.58,7.58,0,0,0-4.06-1.32c-1.81,0-3,1-3,2.3v0.05c0,1.48,1.79,2,3.68,2.56,2.12,0.6,4.35,1.37,4.35,3.7V27C159.48,29.32,157.46,30.82,154.92,30.82Z" transform="translate(-7.3 -4.82)"/><circle class="cls-2" cx="66.36" cy="8.22" r="0.79"/></svg>