<svg id="Layer_1" data-name="Layer 1" xmlns="http://www.w3.org/2000/svg" viewBox="0 0 75 75"><defs><style>.cls-1{fill:#ff5e0b;}.cls-2{fill:#fff;}</style></defs><title>phire-seal</title><circle class="cls-1" cx="37.5" cy="37.5" r="37.5"/><path class="cls-2" d="M62.86,52C62.1,50,57.54,42.67,54,39.54c3.15,5.54,1.05,9.92-2.51,10.12-2.28.13-4-1.56-4.86-3.54A15.1,15.1,0,0,1,45.6,37.7,28.24,28.24,0,0,1,48,30.23c-2.17.9-5.48,1.87-8.9,4.48C34.9,37.89,32.39,42.79,32.54,47c0.18,5.3,2,7.18,1.7,9.73S33,59.89,31.57,60.24a4.69,4.69,0,0,1-4.76-2,7,7,0,0,1-1.29-4.09A13.2,13.2,0,0,1,26.08,50a19.38,19.38,0,0,0-4.78,6.6,17.41,17.41,0,0,0-1.47,11,15.3,15.3,0,0,0,3.71,7.1c0.27,0.3.63,0.68,1.07,1.09A39.07,39.07,0,0,0,39,80a7.65,7.65,0,0,1-4.33-4.69c-1.16-3.88-.41-6.41,1-8.41A12.62,12.62,0,0,1,40.4,62.8a37.56,37.56,0,0,0,4.8-2.68c2.16-1.56.76-4.84,0.76-4.84a7.37,7.37,0,0,1,2.5,4.19,10.41,10.41,0,0,1-.5,5.37c-0.59,1.74-.39,3.72,1.19,4,2.15,0.2,2-2.84,1.73-4.42,1.29,1.21,2.54,2,3.47,3.07a11.89,11.89,0,0,1,2.29,3.39,6.48,6.48,0,0,1-.29,5.31,6.81,6.81,0,0,1-2.07,2.23,39.11,39.11,0,0,0,8.11-3.6c2.29-3,3.37-6.66,3-11.71A32.81,32.81,0,0,0,62.86,52Z" transform="translate(-5 -5)"/></svg>